<svg width="66" height="56" viewBox="0 0 66 56" fill="none" xmlns="http://www.w3.org/2000/svg">
<path d="M48.355 3.64381e-05C46.1474 -0.00377329 43.9608 0.422804 41.9212 1.25521C39.8815 2.08762 38.0291 3.30941 36.4705 4.85024L16.6591 24.3708L12.6976 20.4667C12.1619 19.9574 11.7346 19.348 11.4405 18.6742C11.1465 18.0004 10.9916 17.2755 10.9849 16.5421C10.9782 15.8086 11.1199 15.0811 11.4017 14.4022C11.6834 13.7233 12.0996 13.1065 12.6259 12.5878C13.1522 12.0691 13.778 11.659 14.467 11.3813C15.1559 11.1037 15.894 10.964 16.6383 10.9706C17.3825 10.9772 18.118 11.1298 18.8018 11.4196C19.4855 11.7094 20.1038 12.1306 20.6206 12.6585L28.5475 4.85024C25.3822 1.80745 21.1277 0.116326 16.706 0.143265C12.2843 0.170205 8.05144 1.91304 4.92449 4.99417C1.79755 8.07529 0.0284032 12.2466 0.000339022 16.6042C-0.0277251 20.9618 1.68756 25.1549 4.77457 28.2749L16.6591 39.9872L55.6002 1.61034C53.3381 0.545177 50.862 -0.00515845 48.355 3.64381e-05Z" fill="white"/>
<path d="M63.5231 9.42236L48.355 24.3746L44.3935 20.4666L36.4705 28.2748L40.432 32.1789L24.5859 47.7954L32.5089 55.6074L60.2395 28.2787C62.6973 25.8556 64.3328 22.7414 64.9208 19.3646C65.5088 15.9878 65.0205 12.5144 63.5231 9.42236Z" fill="white"/>
</svg>
